<?xml version="1.0" encoding="UTF-8"?>
<svg xmlns="http://www.w3.org/2000/svg" height="512" viewBox="0 0 60 60" width="512">
  <g id="Page-1" fill="none" fill-rule="evenodd">
    <g id="029---Stopwatch" fill="rgb(0,0,0)" fill-rule="nonzero">
      <path id="Shape" d="m58.827 18.827c1.5601953-1.5617701 1.5601953-4.0922299 0-5.654-1.5832926-1.5073017-4.0707074-1.5073017-5.654 0l-3.273 3.277c-2.9454451-2.1033496-6.3309208-3.508835-9.9-4.11v-4.34c2.209139 0 4-1.790861 4-4s-1.790861-4-4-4h-8c-2.209139 0-4 1.790861-4 4s1.790861 4 4 4v4.355c-3.5603463.6126081-6.9379295 2.0160616-9.884 4.107l-3.289-3.289c-1.5832926-1.5073017-4.0707074-1.5073017-5.654 0-1.5601953 1.5617701-1.5601953 4.0922299 0 5.654l3.281 3.281c-.7852203 1.0914341-1.4757326 2.2479752-2.064 3.457-.16742.3231062-.1461016.7116553.0556624 1.0145057s.5521199.472189.9147829.4421451c.362663-.030044.680377-.2547275.8295547-.5866508.9283018-1.9173538 2.1327851-3.688197 3.575-5.256l1.385 1.386c.3923789.3789722 1.0160848.3735524 1.4018186-.0121814s.3911536-1.0094397.0121814-1.4018186l-1.376-1.377c1.6372531-1.4888726 3.4872363-2.7254527 5.489-3.669l.746 1.8c.2112489.5103111.7961889.7527489 1.3065.5415s.7527489-.7961889.5415-1.3065l-.75-1.81c2.0816761-.7569459 4.2662657-1.1932569 6.479-1.294v1.964c0 .5522847.4477153 1 1 1s1-.4477153 1-1v-1.975c2.2147948.0980323 4.4017997.5323311 6.486 1.288l-.757 1.827c-.2108831.510311.0317522 1.0949638.542 1.306.5100349.2109975 1.0945733-.0311428 1.306-.541l.755-1.822c2.0051273.9435231 3.8568592 2.1834048 5.493 3.678l-1.389 1.39c-.2599566.2510745-.3642126.6228779-.2726972.9725073.0915155.3496295.3645604.6226744.7141899.7141899.3496294.0915154.7214328-.0127406.9725073-.2726972l1.389-1.39c1.4945952 1.6361408 2.7344769 3.4878727 3.678 5.493l-1.822.754c-.3301134.1366541-.5622467.4390411-.6089575.7932547-.0467108.3542137.0990974.7064405.3825.924.2834026.2175596.6613441.2673994.9914575.1307453l1.827-.757c.7555734 2.0845724 1.1898678 4.271892 1.288 6.487h-1.975c-.5522847 0-1 .4477153-1 1s.4477153 1 1 1h1.975c-.0980323 2.2147948-.5323311 4.4017997-1.288 6.486l-1.827-.756c-.5103111-.2112489-1.0952511.0311889-1.3065.5415s.0311889 1.0952511.5415 1.3065l1.822.754c-.9435231 2.0051273-2.1834048 3.8568592-3.678 5.493l-1.389-1.39c-.2510745-.2599566-.6228779-.3642126-.9725073-.2726972-.3496295.0915155-.6226744.3645604-.7141899.7141899-.0915154.3496294.0127406.7214328.2726972.9725073l1.389 1.39c-1.6361408 1.4945952-3.4878727 2.7344769-5.493 3.678l-.755-1.817c-.2112489-.5103111-.7961889-.7527489-1.3065-.5415s-.7527489.7961889-.5415 1.3065l.757 1.827c-2.0844671.7539637-4.2714647 1.1865751-6.486 1.283v-1.975c0-.5522847-.4477153-1-1-1s-1 .4477153-1 1v1.973c-2.2140927-.1007039-4.4001877-.5359675-6.484-1.291l.755-1.822c.2112489-.5103111-.0311889-1.0952511-.5415-1.3065s-1.0952511.0311889-1.3065.5415l-.756 1.825c-2.8127409-1.3171358-5.3138599-3.2163229-7.338-5.572-.3661187-.3889259-.9732551-.4214623-1.3788427-.0738922s-.4664214.9525267-.1381573 1.3738922c8.3595843 9.7149851 22.8792142 11.1428837 32.9711432 3.2424688 10.0919289-7.9004149 12.1911281-22.3382787 4.7668568-32.7854688zm-28.827-14.827c0-1.1045695.8954305-2 2-2h8c1.1045695 0 2 .8954305 2 2s-.8954305 2-2 2h-8c-1.1045695 0-2-.8954305-2-2zm4 4h4v4.09c-.66-.055-1.326-.09-2-.09s-1.337.037-2 .094zm-16.307 12.52-3.106-3.107c-.7262072-.7890197-.7009029-2.0103747.0573612-2.7686388s1.9796191-.7835684 2.7686388-.0573612l3.1 3.1c-1.0165659.8648977-1.9597869 1.8124669-2.82 2.833zm33.794-2.833 3.1-3.1c.7890197-.7262072 2.0103747-.7009029 2.7686388.0573612s.7835684 1.9796191.0573612 2.7686388l-3.1 3.1c-.8618645-1.0188647-1.8071353-1.9641355-2.826-2.826z"></path>
      <path id="Shape" d="m10 36c0 .5522847.4477153 1 1 1h17c.5522847 0 1-.4477153 1-1s-.4477153-1-1-1h-17c-.5522847 0-1 .4477153-1 1z"></path>
      <path id="Shape" d="m25 29h-17c-.55228475 0-1 .4477153-1 1s.44771525 1 1 1h17c.5522847 0 1-.4477153 1-1s-.4477153-1-1-1z"></path>
      <path id="Shape" d="m26 42c0-.5522847-.4477153-1-1-1h-17c-.55228475 0-1 .4477153-1 1s.44771525 1 1 1h17c.5522847 0 1-.4477153 1-1z"></path>
      <path id="Shape" d="m1 31h3c.55228475 0 1-.4477153 1-1s-.44771525-1-1-1h-3c-.55228475 0-1 .4477153-1 1s.44771525 1 1 1z"></path>
      <path id="Shape" d="m4 35c-.55228475 0-1 .4477153-1 1s.44771525 1 1 1h3c.55228475 0 1-.4477153 1-1s-.44771525-1-1-1z"></path>
      <path id="Shape" d="m5 42c0-.5522847-.44771525-1-1-1h-3c-.55228475 0-1 .4477153-1 1s.44771525 1 1 1h3c.55228475 0 1-.4477153 1-1z"></path>
      <path id="Shape" d="m29 47c0-.5522847-.4477153-1-1-1h-17c-.5522847 0-1 .4477153-1 1s.4477153 1 1 1h17c.5522847 0 1-.4477153 1-1z"></path>
      <path id="Shape" d="m7 46h-3c-.55228475 0-1 .4477153-1 1s.44771525 1 1 1h3c.55228475 0 1-.4477153 1-1s-.44771525-1-1-1z"></path>
      <path id="Shape" d="m36 20c-.5522847 0-1 .4477153-1 1v11.142c-1.9503067.503567-3.2219252 2.3787867-2.9681188 4.3770005s1.9538507 3.4959828 3.9681188 3.4959828 3.7143124-1.497769 3.9681188-3.4959828-1.0178121-3.8734335-2.9681188-4.3770005v-11.142c0-.5522847-.4477153-1-1-1zm2 16c0 1.1045695-.8954305 2-2 2s-2-.8954305-2-2 .8954305-2 2-2 2 .8954305 2 2z"></path>
    </g>
  </g>
</svg>
